<svg width="65" height="65" viewBox="0 0 65 65" fill="none" xmlns="http://www.w3.org/2000/svg">
<g id="&#209;&#130;&#208;&#181;&#208;&#187;&#208;&#181;&#208;&#179;&#209;&#128;&#208;&#176;&#208;&#188;&#208;&#188; &#208;&#184;&#208;&#186;&#208;&#190;&#208;&#189;&#208;&#186;&#208;&#176;">
<path id="Oval" d="M32.5 65C50.4493 65 65 50.4493 65 32.5C65 14.5507 50.4493 0 32.5 0C14.5507 0 0 14.5507 0 32.5C0 50.4493 14.5507 65 32.5 65Z" fill="url(#paint0_linear_1_293)"/>
<g id="Path">
<path id="Vector" d="M27.2928 44.8471C26.2398 44.8471 26.4188 44.4495 26.0556 43.4469L22.9595 33.2573L46.7928 19.1179" fill="#CBD9E8"/>
<path id="Vector_2" d="M27.2927 44.8471C28.1052 44.8471 28.4641 44.4755 28.9177 44.0346L33.2511 39.8209L27.8458 36.5615" fill="#AFC9DE"/>
<path id="Vector_3" d="M27.8454 36.5623L40.9429 46.2389C42.4376 47.0636 43.516 46.6365 43.8884 44.8514L49.2198 19.7281C49.7655 17.5398 48.3856 16.5469 46.9556 17.1961L15.65 29.2674C13.5131 30.1246 13.5259 31.3168 15.2605 31.8479L23.2943 34.3555L41.8932 22.6217C42.7713 22.0892 43.5773 22.3752 42.9159 22.9624" fill="white"/>
</g>
</g>
<defs>
<linearGradient id="paint0_linear_1_293" x1="32.5" y1="0" x2="32.5" y2="64.5179" gradientUnits="userSpaceOnUse">
<stop stop-color="#2AABEE"/>
<stop offset="1" stop-color="#229ED9"/>
</linearGradient>
</defs>
</svg>
